<?xml version="1.0" encoding="UTF-8" standalone="no"?>
<!-- Generator: Adobe Illustrator 19.0.0, SVG Export Plug-In . SVG Version: 6.00 Build 0)  -->

<svg
   version="1.1"
   id="Capa_1"
   x="0px"
   y="0px"
   viewBox="0 0 384.971 384.971"
   style="enable-background:new 0 0 384.971 384.971;"
   xml:space="preserve"
   sodipodi:docname="login2.svg"
   inkscape:version="1.2.1 (9c6d41e, 2022-07-14)"
   xmlns:inkscape="http://www.inkscape.org/namespaces/inkscape"
   xmlns:sodipodi="http://sodipodi.sourceforge.net/DTD/sodipodi-0.dtd"
   xmlns="http://www.w3.org/2000/svg"
   xmlns:svg="http://www.w3.org/2000/svg"><defs
   id="defs906" /><sodipodi:namedview
   id="namedview904"
   pagecolor="#ffffff"
   bordercolor="#000000"
   borderopacity="0.25"
   inkscape:showpageshadow="2"
   inkscape:pageopacity="0.0"
   inkscape:pagecheckerboard="0"
   inkscape:deskcolor="#d1d1d1"
   showgrid="false"
   inkscape:zoom="1.1390468"
   inkscape:cx="27.654702"
   inkscape:cy="191.82706"
   inkscape:window-width="1390"
   inkscape:window-height="1027"
   inkscape:window-x="0"
   inkscape:window-y="25"
   inkscape:window-maximized="0"
   inkscape:current-layer="Sign_Out" />
<g
   id="g871">
	<g
   id="Sign_Out">
		<path
   d="M 205.91488,360.91 H 49.520884 V 24.061 H 205.91488 c 6.641,0 12.03,-5.39 12.03,-12.03 0,-6.64 -5.39,-12.03 -12.03,-12.03 H 37.489884 c -6.64,0 -12.03,5.389 -12.03,12.03 V 372.94 c 0,6.641 5.39,12.03 12.03,12.03 H 205.91388 c 6.641,0 12.03,-5.39 12.03,-12.03 0.001,-6.641 -5.389,-12.03 -12.029,-12.03 z"
   id="path854"
   sodipodi:nodetypes="sccsssssssscs" />
		<path
   d="m 134.26968,184.088 83.009,-84.2 c 4.704,-4.752 12.319,-4.74 17.011,0 4.704,4.74 4.704,12.439 0,17.179 l -62.558,63.46 h 175.74998 c 6.641,0 12.03,5.438 12.03,12.151 0,6.713 -5.39,12.151 -12.03,12.151 H 171.73168 l 62.558,63.46 c 4.704,4.752 4.704,12.439 0,17.179 -4.704,4.752 -12.319,4.752 -17.011,0 l -82.997,-84.2 c -4.644,-4.68 -4.692,-12.512 -0.012,-17.18 z"
   id="path856"
   sodipodi:nodetypes="cccccssscccccc" />
	</g>
	<g
   id="g859">
	</g>
	<g
   id="g861">
	</g>
	<g
   id="g863">
	</g>
	<g
   id="g865">
	</g>
	<g
   id="g867">
	</g>
	<g
   id="g869">
	</g>
</g>
<g
   id="g873">
</g>
<g
   id="g875">
</g>
<g
   id="g877">
</g>
<g
   id="g879">
</g>
<g
   id="g881">
</g>
<g
   id="g883">
</g>
<g
   id="g885">
</g>
<g
   id="g887">
</g>
<g
   id="g889">
</g>
<g
   id="g891">
</g>
<g
   id="g893">
</g>
<g
   id="g895">
</g>
<g
   id="g897">
</g>
<g
   id="g899">
</g>
<g
   id="g901">
</g>
</svg>
